<svg data-v-0dd9719b="" version="1.0" xmlns="http://www.w3.org/2000/svg" xmlns:xlink="http://www.w3.org/1999/xlink" width="100%" height="100%" viewBox="0 0 340.000000 250.000000" preserveAspectRatio="xMidYMid meet" color-interpolation-filters="sRGB" style="margin: auto;"> <rect data-v-0dd9719b="" x="0" y="0" width="100%" height="100%" fill="#fff" fill-opacity="1" class="background"></rect> <rect data-v-0dd9719b="" x="0" y="0" width="100%" height="100%" fill="url(#watermark)" fill-opacity="1" class="watermarklayer"></rect> <g data-v-0dd9719b="" fill="#333" class="icon-text-wrapper icon-svg-group iconsvg" transform="translate(49,92.12940979003906)"><g class="iconsvg-imagesvg" transform="translate(0,0)"><g><rect fill="#333" fill-opacity="0" stroke-width="2" x="0" y="0" width="60" height="65.74117698620532" class="image-rect"></rect> <svg x="0" y="0" width="60" height="65.74117698620532" filtersec="colorsb1909886068" class="image-svg-svg primary" style="overflow: visible;"><svg xmlns="http://www.w3.org/2000/svg" viewBox="0.0018437110120430589 0 91.22099304199219 99.94999694824219"><path d="M71.1 48.23c0-1.43 0-2.84-.1-4.23 0-1.09-.13-2.16-.22-3.23-.18-2.27-.41-4.49-.75-6.64-.17-1.11-.38-2.19-.6-3.27a72.55 72.55 0 0 0-2.27-8.67c-.25-.75-.51-1.48-.78-2.2-.59-1.56-1.22-3-1.9-4.44-.35-.71-.69-1.42-1.06-2.1C58.85 5.1 52.61 0 45.61 0c-11 0-20.2 12.65-23.81 30.86 1.78-1.36 3.62-2.69 5.58-4C31 13.64 37.91 4.48 45.61 4.48c4.84 0 9.35 3.63 12.94 9.6.4.65.77 1.34 1.14 2a47 47 0 0 1 2 4.27c.28.69.53 1.41.78 2.13.5 1.4 1 2.85 1.39 4.36q.43 1.61.81 3.27c.46 2.06.85 4.2 1.15 6.41.15 1 .29 2.06.39 3.13a84.71 84.71 0 0 1 .43 8.53 77.59 77.59 0 0 1-4.17 25.7c-.25.72-.51 1.44-.78 2.13-.62 1.53-1.29 2.94-2 4.29-.36.69-.73 1.36-1.11 2-2.44 4.05-5.3 7-8.39 8.49a5.68 5.68 0 0 0-4.57-2.41 5.79 5.79 0 0 0 0 11.57 5.71 5.71 0 0 0 5.57-4.69C55.9 93.38 60.1 89.07 63.41 83c.37-.67.72-1.38 1.06-2.09q1-2.11 1.91-4.45c.27-.72.53-1.45.78-2.2a83.14 83.14 0 0 0 3.94-26.03z" fill="#1d3bd4"></path><path d="M36.26 74.69C23 78.14 11.58 76.77 7.72 70.1c-2.42-4.19-1.52-9.91 1.85-16 .37-.66.78-1.33 1.21-2a46.78 46.78 0 0 1 2.7-3.86c.46-.58 1-1.17 1.46-1.75 1-1.13 2-2.26 3.08-3.38.78-.78 1.59-1.56 2.43-2.33 1.55-1.43 3.2-2.84 5-4.21.83-.64 1.65-1.28 2.52-1.9C30.19 33 32.59 31.48 35.1 30a77.72 77.72 0 0 1 24.34-9.24 43 43 0 0 0-2-4.24 82.63 82.63 0 0 0-24.52 9.6c-1.24.72-2.43 1.46-3.61 2.21-.92.59-1.81 1.19-2.69 1.8-1.87 1.29-3.68 2.61-5.37 4-.88.71-1.71 1.43-2.53 2.15a71.93 71.93 0 0 0-6.38 6.31c-.53.59-1 1.18-1.52 1.77Q9.2 46.3 7.88 48.23c-.44.65-.88 1.31-1.28 2-5 8.13-6.25 16.09-2.75 22.15 3.37 5.84 10.48 8.73 19.51 8.73a60.61 60.61 0 0 0 19.11-3.53c-2.06-.9-4.13-1.84-6.21-2.89zM6.6 46.26c.91-1.3 1.89-2.6 3-3.9-2.26-4.1-3.38-8-3.15-11.43a5.76 5.76 0 0 0 2.23-10.71 5.87 5.87 0 0 0-2.89-.77 5.81 5.81 0 0 0-5 2.89 5.72 5.72 0 0 0-.59 4.39 5.64 5.64 0 0 0 1.86 2.78C1.37 34.57 3 40.36 6.6 46.26zM72.56 36.28c.29 2.23.52 4.49.65 6.82 9.64 9.8 14.14 20.34 10.3 27-2.42 4.19-7.83 6.28-14.8 6.41q-.87 2.35-1.88 4.51h1c9 0 16.14-2.89 19.51-8.73 5.56-9.51-.82-23.77-14.78-36.01z" fill="#1d3bd4"></path><path d="M45.61 71.56c-1-.4-1.93-.79-2.91-1.23a86.795 86.795 0 0 1-7.6-3.9A77.78 77.78 0 0 1 14.93 50a44 44 0 0 0-2.64 3.9 82.87 82.87 0 0 0 20.58 16.4c1.24.72 2.48 1.38 3.72 2 1 .51 1.94 1 2.9 1.43q3.09 1.47 6.12 2.66c1.06.4 2.1.77 3.15 1.13a71.29 71.29 0 0 0 8.64 2.38 42.75 42.75 0 0 0 2-4.23c-1.46-.27-2.95-.59-4.47-1-1.07-.28-2.15-.6-3.24-.93-1.97-.61-4.02-1.34-6.08-2.18zM90.45 22.34a5.81 5.81 0 0 0-5-2.89 5.63 5.63 0 0 0-1.9.37c-4-3.09-9.84-4.56-16.71-4.4.68 1.45 1.31 3 1.89 4.53 4.71.09 8.68 1.09 11.52 3a5.72 5.72 0 0 0 .2 5.17 5.81 5.81 0 0 0 5 2.89 5.79 5.79 0 0 0 5-8.68z" fill="#1d3bd4"></path><circle cx="45.61" cy="48.81" r="11.16" fill="#f39a2c"></circle></svg></svg> <!----></g></g> <g transform="translate(67,5.519342422485352)"><g data-gra="path-name" fill-rule="" class="tp-name iconsvg-namesvg" transform="translate(0,0)"><g transform="scale(1)"><g><path d="M11.71 1.93L11.71 1.93Q9.91 1.93 9.48 0.92L9.48 0.92Q9.34 0.7 9.34 0.48L9.34 0.48Q9.34 0.18 9.87-0.79L9.87-0.79Q10.66-2.28 10.66-3.33L10.66-3.33 10.66-16.28 5.57-16.28Q2.76-16.28 2.76-18.03L2.76-18.03Q2.76-19.79 5.57-19.79L5.57-19.79 10.66-19.79 10.66-34.48Q10.66-36.32 13.56-36.32L13.56-36.32Q16.45-36.32 16.45-34.48L16.45-34.48 16.45-19.79 39.92-19.79Q42.73-19.79 42.73-18.03L42.73-18.03Q42.73-16.28 39.92-16.28L39.92-16.28 26.54-16.28Q31.1-6.19 40.19-2.5L40.19-2.5Q42.42-1.67 42.42-0.7L42.42-0.7Q42.42-0.35 42.16 0L42.16 0Q41.15 1.4 39.48 1.4L39.48 1.4Q38.47 1.4 37.25 0.92L37.25 0.92Q25.75-3.82 21.06-16.28L21.06-16.28 16.45-16.28 16.45-2.72Q23.82-4.47 24.52-4.47L24.52-4.47Q26.5-4.47 26.5-2.9L26.5-2.9Q26.5-2.59 25.2-1.75 23.91-0.92 22.42-0.48L22.42-0.48Q21.54-0.26 20.05 0.18L20.05 0.18Q13.29 1.93 11.71 1.93ZM21.63-22.72L21.63-22.72Q20.49-22.72 19.65-23.56L19.65-23.56Q18.56-24.7 18.56-24.87L18.56-24.87Q18.56-25.44 20.44-26.28L20.44-26.28Q27.42-29.61 31.85-34.13L31.85-34.13Q32.95-35.32 34.31-35.32L34.31-35.32Q35.23-35.32 36.28-34.79L36.28-34.79Q37.51-34.22 37.51-33.56L37.51-33.56Q37.51-33.21 37.16-32.82L37.16-32.82Q34.96-30.58 31.19-27.86L31.19-27.86Q27.99-25.53 23.95-23.38L23.95-23.38Q22.64-22.72 21.63-22.72ZM63.13 2.85L63.13 2.85Q61.16 2.85 60.28 1.36L60.28 1.36Q60.15 1.14 60.15 0.92L60.15 0.92Q60.15-0.09 63.04-0.79L63.04-0.79Q69.27-2.41 73.09-5.62L73.09-5.62Q77.21-8.99 79.32-14.7L79.32-14.7Q79.98-16.45 81.86-16.45L81.86-16.45Q82.48-16.45 83.18-16.28L83.18-16.28Q84.93-15.79 84.93-14.83L84.93-14.83Q84.93-14.61 84.85-14.39L84.85-14.39Q82.56-7.9 77.74-3.77 72.91 0.35 64.97 2.59L64.97 2.59Q63.96 2.85 63.13 2.85ZM51.94 2.02L51.94 2.02Q50.85 2.02 49.44 0.92L49.44 0.92Q48.56 0.26 48.56-0.26L48.56-0.26Q48.56-0.53 48.74-0.75L48.74-0.75Q51.11-4.39 54.71-11.45L54.71-11.45Q55.41-12.9 56.59-12.9L56.59-12.9Q57.69-12.9 59.18-11.58L59.18-11.58Q59.8-11.06 59.8-10.53L59.8-10.53Q59.8-10.27 59.66-10.05L59.66-10.05Q57.12-4.65 54.18 0.48L54.18 0.48Q53.26 2.02 51.94 2.02ZM69.05-9.91L69.05-9.91Q65.85-9.91 65.28-11.67L65.28-11.67 65.24-11.98Q65.24-12.33 65.59-12.59L65.59-12.59Q66.6-13.34 68.48-13.34L68.48-13.34 70.37-13.38Q70.41-13.38 70.41-34.7L70.41-34.7Q70.41-36.41 73.22-36.41L73.22-36.41Q75.98-36.41 75.98-34.7L75.98-34.7 75.98-14.3Q75.98-12.94 75.68-12.2L75.68-12.2Q74.8-10.13 69.05-9.91ZM61.55-16.5L61.55-16.5Q60.58-16.5 59.51-17.2 58.44-17.9 58.44-18.12L58.44-18.12Q58.44-18.34 58.83-18.91L58.83-18.91Q61.07-22.51 62.69-27.55L62.69-27.55Q63.22-29.26 65.15-29.26L65.15-29.26Q65.72-29.26 66.38-29.13L66.38-29.13Q68.26-28.74 68.26-27.73L68.26-27.73 68.22-27.38Q64.66-16.5 61.55-16.5ZM55.06-17.9L55.06-17.9Q54-17.9 52.78-18.86L52.78-18.86Q50.36-20.44 48.43-21.36L48.43-21.36Q47.47-21.8 47.47-22.51L47.47-22.51Q47.47-22.9 47.82-23.43L47.82-23.43Q48.48-24.3 49.57-24.3L49.57-24.3Q50.41-24.3 51.46-23.87L51.46-23.87Q54.71-22.42 57.08-20.88L57.08-20.88Q57.82-20.36 57.82-20.22L57.82-20.22Q57.82-20.09 57.43-19.43L57.43-19.43Q56.42-17.9 55.06-17.9ZM84.67-17.9L84.67-17.9Q82.83-17.9 82.43-19.35L82.43-19.35Q81.12-23.08 78.53-27.73L78.53-27.73Q78.4-27.95 78.4-28.16L78.4-28.16Q78.4-28.82 79.62-29.39L79.62-29.39Q80.59-29.79 81.38-29.79L81.38-29.79Q82.78-29.79 83.66-28.52L83.66-28.52Q86.69-23.56 87.96-19.79L87.96-19.79 88-19.57Q88-19.04 86.6-18.38L86.6-18.38Q85.5-17.9 84.67-17.9ZM57.34-29.39L57.34-29.39Q56.29-29.39 55.1-30.36L55.1-30.36Q53.48-31.63 50.85-33.08L50.85-33.08Q49.84-33.56 49.84-34.13L49.84-34.13Q49.84-34.39 50.06-34.7L50.06-34.7Q50.93-35.93 52.29-35.93L52.29-35.93Q53.08-35.93 54.05-35.53L54.05-35.53Q57.51-33.82 59.14-32.64L59.14-32.64Q60.15-31.89 60.15-31.67L60.15-31.67Q60.15-31.5 59.75-30.97L59.75-30.97Q58.65-29.39 57.34-29.39ZM129.59 2.85L129.59 2.85Q128.67 2.85 127.53 2.37L127.53 2.37Q120.34-1.49 117.7-9.56L117.7-9.56 115.25-8.03 115.25-1.49Q115.91-1.62 119.37-2.11L119.37-2.11Q120.07-2.24 120.6-2.24L120.6-2.24Q122.4-2.24 122.4-0.79L122.4-0.79Q122.4 0.35 120.38 0.66L120.38 0.66Q108.75 2.68 108.1 2.68L108.1 2.68Q106.3 2.68 105.99 1.18L105.99 1.18 105.99 0.97Q105.99-0.13 107.88-0.39L107.88-0.39 110.03-0.7 110.03-4.83Q112.31-5.97 112.31-6.1L112.31-6.1Q111.96-6.1 108.84-4.87L108.84-4.87Q107.83-4.43 107-4.43L107-4.43Q105.55-4.43 104.76-5.7L104.76-5.7Q104.59-5.97 104.59-6.23L104.59-6.23Q104.59-6.98 106.25-7.55L106.25-7.55Q111.17-9.26 115.29-12.46L115.29-12.46 111.17-12.46Q109.28-12.46 108.4-13.34 107.53-14.21 107.53-15.05L107.53-15.05 107.53-18.82Q107.53-19.65 108.4-20.53 109.28-21.41 111.17-21.41L111.17-21.41 126.52-21.41Q128.41-21.41 129.29-20.53 130.16-19.65 130.16-18.82L130.16-18.82 130.16-15.05Q130.16-14.21 129.29-13.34 128.41-12.46 126.52-12.46L126.52-12.46 121.7-12.46Q122.71-9.21 123.67-7.5L123.67-7.5Q124.55-8.03 126.87-10L126.87-10Q127.84-10.79 128.89-10.79L128.89-10.79Q130.25-10.79 130.87-10.18 131.48-9.56 131.48-9.08L131.48-9.08Q131.48-8.12 125.47-4.78L125.47-4.78Q128.19-1.71 130.6-0.44L130.6-0.44Q132.44 0.35 132.44 0.88L132.44 0.88Q132.44 1.01 132.01 1.62L132.01 1.62Q131.08 2.85 129.59 2.85ZM96.43 3.16L96.43 3.16Q93.18 3.03 93.18 1.05L93.18 1.05 92.96 0.48Q92.96-0.18 95.2-0.18L95.2-0.18 96.08-0.18Q97-0.18 97.66-0.26L97.66-0.26Q99.94-0.57 99.94-13.29L99.94-13.29 99.94-12.24Q99.32-11.45 96.78-9.04L96.78-9.04Q95.64-8.12 94.45-8.12L94.45-8.12Q94.41-8.12 93.77-8.14 93.14-8.16 92.22-9.21L92.22-9.21Q91.6-9.87 91.6-10.09L91.6-10.09Q91.6-10.35 92.61-11.1L92.61-11.1Q96.69-14.48 99.59-19.7L99.59-19.7Q99.06-23.08 98.62-24.3L98.62-24.3Q96.43-21.85 94.63-21.85L94.63-21.85Q93.44-21.85 92.39-22.9L92.39-22.9Q92-23.25 92-23.65L92-23.65Q92-24.13 92.65-24.61L92.65-24.61Q94.67-26.28 96.73-28.69L96.73-28.69Q94.94-31.59 93.09-33.43L93.09-33.43Q92.65-33.82 92.65-34.22L92.65-34.22Q92.65-34.66 93.18-35.05L93.18-35.05Q94.28-35.84 95.29-35.84L95.29-35.84Q97.17-35.84 99.76-32.51L99.76-32.51Q99.94-32.73 100.9-34.35L100.9-34.35Q101.74-35.8 103.18-35.8L103.18-35.8Q104.1-35.8 105.27-35.23 106.43-34.66 106.43-34L106.43-34Q106.43-33.17 102.44-28.38L102.44-28.38Q104.32-24.57 104.89-20.71L104.89-20.71Q105.38-17.77 105.38-13.25L105.38-13.25Q105.38-2.06 103.14 0.97L103.14 0.97Q102 2.41 99.98 2.81L99.98 2.81Q98.49 3.16 96.43 3.16ZM113.14-14.83L124.33-14.83Q124.59-14.83 124.59-16.14L124.59-16.14 124.59-17.72Q124.59-19.04 124.33-19.04L124.33-19.04 113.14-19.04Q112.88-19.04 112.88-17.72L112.88-17.72 112.88-16.14Q112.88-14.83 113.14-14.83L113.14-14.83ZM129.81-24.17L129.81-24.17 107.26-24.17Q104.81-24.17 104.81-25.58L104.81-25.58Q104.81-26.98 107.26-26.98L107.26-26.98 115.73-26.98 115.73-30.4 109.63-30.4Q107.22-30.4 107.22-31.81L107.22-31.81Q107.22-33.17 109.63-33.17L109.63-33.17 115.73-33.17 115.73-34.83Q115.73-36.59 118.54-36.59L118.54-36.59Q121.35-36.59 121.35-34.83L121.35-34.83 121.35-33.17 127.88-33.17Q130.29-33.17 130.29-31.81L130.29-31.81Q130.29-30.4 127.88-30.4L127.88-30.4 121.35-30.4 121.35-26.98 129.81-26.98Q132.27-26.98 132.27-25.58L132.27-25.58Q132.27-24.17 129.81-24.17ZM159.86 2.9L159.86 2.9Q158.64 2.9 157.76 1.89L157.76 1.89Q157.58 1.67 157.58 1.45L157.58 1.45Q157.58 0.79 159.12-0.13L159.12-0.13Q163.07-2.81 164.38-7.72L164.38-7.72 159.42-7.72Q156.92-7.72 156.92-9.21L156.92-9.21Q156.92-10.66 159.42-10.66L159.42-10.66 164.82-10.66Q164.86-11.32 164.86-16.23L164.86-16.23 163.07-16.23Q161.4-12.42 159.56-12.42L159.56-12.42Q158.68-12.42 157.63-13.16L157.63-13.16Q156.92-13.64 156.92-14.13L156.92-14.13Q156.92-14.39 157.1-14.65L157.1-14.65Q158.85-17.59 160-21.32L160-21.32Q160.39-22.81 162.06-22.81L162.06-22.81Q162.67-22.81 163.46-22.59L163.46-22.59Q165.13-22.2 165.13-21.32L165.13-21.32Q165.13-20.79 164.38-19.13L164.38-19.13 173.9-19.13Q176.4-19.13 176.4-17.68L176.4-17.68Q176.4-16.23 173.9-16.23L173.9-16.23 170.17-16.23Q170.17-11.41 170.09-10.66L170.09-10.66 175.17-10.66Q177.67-10.66 177.67-9.21L177.67-9.21Q177.67-7.72 175.17-7.72L175.17-7.72 170.61-7.72Q172.85-2.54 176.23-0.18L176.23-0.18Q177.5 0.53 177.5 0.92L177.5 0.92Q177.5 1.05 177.06 1.54L177.06 1.54Q176.1 2.72 174.82 2.72L174.82 2.72Q173.86 2.72 172.67 1.97L172.67 1.97Q169.21-0.44 167.98-3.07L167.98-3.07Q166.97-0.88 162.58 1.97L162.58 1.97Q161.05 2.9 159.86 2.9ZM154.34 3.16L154.34 3.16Q151.66 3.16 151.66 1.58L151.66 1.58 151.66-19.39Q152.8-21.01 152.8-21.06L152.8-21.06 152.1-20.22Q151.4-19.43 150.26-19.43L150.26-19.43Q150.17-19.43 149.49-19.48 148.81-19.52 148.24-20.36L148.24-20.36 147.93-20.71Q148.54-19.87 149.03-19.39L149.03-19.39Q149.25-18.03 149.25-13.42L149.25-13.42Q149.25-2.06 147.36 0.53L147.36 0.53Q145.87 2.5 141.66 2.5L141.66 2.5Q138.45 2.5 138.45 0.57L138.45 0.57Q138.28 0.13 138.28 0.04L138.28 0.04Q138.28-0.53 140.34-0.53L140.34-0.53 141.17-0.53 142.32-0.57Q142.49-0.57 142.8-0.92L142.8-0.92Q144.2-2.9 144.2-13.47L144.2-13.47 144.2-11.8Q143.98-11.49 141.66-9.04L141.66-9.04Q140.6-8.03 139.51-8.03L139.51-8.03Q139.38-8.03 138.67-8.12 137.97-8.2 137.27-9.34L137.27-9.34Q137.01-9.83 137.01-10.05L137.01-10.05Q137.01-10.35 137.71-10.97L137.71-10.97Q141.48-14.48 143.89-19.7L143.89-19.7Q143.46-22.9 143.11-24.08L143.11-24.08 141.57-22.68Q140.39-21.67 139.29-21.67L139.29-21.67Q139.11-21.67 138.37-21.78 137.62-21.89 137.01-23.08L137.01-23.08Q136.79-23.56 136.79-23.87L136.79-23.87Q136.79-24.17 137.71-24.87L137.71-24.87Q139.55-26.37 141.44-28.52L141.44-28.52Q140.12-31.06 138.37-33.08L138.37-33.08Q138.02-33.43 138.02-33.78L138.02-33.78Q138.02-34.17 138.54-34.53L138.54-34.53Q139.55-35.27 140.47-35.27L140.47-35.27Q141.61-35.27 142.67-34.17L142.67-34.17Q144.33-32.29 144.38-32.29L144.38-32.29Q144.51-32.46 145.23-33.8 145.96-35.14 147.14-35.14L147.14-35.14Q148.06-35.14 149.25-34.39L149.25-34.39Q149.99-33.91 149.99-33.52L149.99-33.52 149.95-33.34Q148.68-31.1 146.7-28.34L146.7-28.34Q148.24-24.83 148.54-22.77L148.54-22.77Q149.33-23.6 151.31-27.33L151.31-27.33Q153.24-30.84 154.38-34.57L154.38-34.57Q154.86-36.11 156.66-36.11L156.66-36.11Q157.28-36.11 158.02-35.93L158.02-35.93Q159.86-35.49 159.86-34.61L159.86-34.61 159.82-34.26Q158.81-31.19 156.97-27.64L156.97-27.64 156.97 1.58Q156.97 3.16 154.34 3.16ZM175.26-23.65L175.26-23.65 159.86-23.65Q157.36-23.65 157.36-25.09L157.36-25.09Q157.36-26.54 159.86-26.54L159.86-26.54 168.68-26.54 168.94-29.22Q169.12-30.67 169.12-31.06L169.12-31.06Q169.12-31.76 168.9-31.76L168.9-31.76 162.67-31.76Q160.17-31.76 160.17-33.21L160.17-33.21Q160.17-34.66 162.67-34.66L162.67-34.66 170.96-34.66Q172.98-34.66 173.73-33.82 174.47-32.99 174.47-32.16L174.47-32.16Q174.47-31.94 174.08-28.52L174.08-28.52 173.86-26.54 175.26-26.54Q177.76-26.54 177.76-25.09L177.76-25.09Q177.76-23.65 175.26-23.65Z" transform="translate(-2.759999990463257, 36.59000015258789)"></path></g> <!----> <!----> <!----> <!----> <!----> <!----> <!----></g></g> <g data-gra="path-slogan" fill-rule="" class="tp-slogan iconsvg-slogansvg" fill="#333" transform="translate(5,45.75)"><rect x="0" height="1" y="3.9750003814697266" width="14.790000915527344"></rect> <rect height="1" y="3.9750003814697266" width="14.790000915527344" x="150.20999908447266"></rect> <g transform="translate(17.790000915527344,0)"><g transform="scale(1)"><path d="M8.06-6.05L8.06-6.05L6.94-6.05Q6.52-7.78 4.55-7.83L4.55-7.83Q1.83-7.69 1.73-4.36L1.73-4.36Q1.73-0.80 4.59-0.80L4.59-0.80Q6.56-0.84 7.03-3.19L7.03-3.19L8.16-3.19Q7.64 0.05 4.36 0.14L4.36 0.14Q0.61 0 0.52-4.31L0.52-4.31Q0.70-8.63 4.55-8.81L4.55-8.81Q7.59-8.72 8.06-6.05ZM10.69-5.06L15.19-5.06L15.19-8.58L16.36-8.58L16.36 0L15.19 0L15.19-3.98L10.69-3.98L10.69 0L9.52 0L9.52-8.58L10.69-8.58L10.69-5.06ZM23.81 0L22.97-2.48L19.50-2.48L18.61 0L17.44 0L20.67-8.58L21.98-8.58L25.08 0L23.81 0ZM21.23-7.31L19.88-3.52L22.55-3.52L21.28-7.31L21.23-7.31ZM27.52-8.58L31.83-1.64L31.83-8.58L32.95-8.58L32.95 0L31.64 0L27.28-6.94L27.23-6.94L27.23 0L26.11 0L26.11-8.58L27.52-8.58ZM41.16-3.61L38.53-3.61L38.53-4.59L42.28-4.59L42.28 0L41.53 0L41.25-1.08Q40.27 0.09 38.44 0.14L38.44 0.14Q36.70 0.14 35.77-0.75L35.77-0.75Q34.36-2.06 34.41-4.36L34.41-4.36Q34.73-8.63 38.48-8.81L38.48-8.81Q41.67-8.63 42.14-6L42.14-6L41.02-6Q40.55-7.78 38.44-7.83L38.44-7.83Q35.77-7.64 35.63-4.31L35.63-4.31Q35.63-0.75 38.48-0.75L38.48-0.75Q39.52-0.75 40.27-1.31L40.27-1.31Q41.20-2.06 41.16-3.61L41.16-3.61ZM50.34-6.09L50.34-6.09L49.27-6.09Q49.17-7.73 47.11-7.83L47.11-7.83Q45.19-7.78 45.19-6.33L45.19-6.33Q45.19-5.39 46.22-5.25L46.22-5.25L48.66-4.69Q50.58-4.22 50.58-2.34L50.58-2.34Q50.53 0.05 47.20 0.14L47.20 0.14Q45.38 0.14 44.63-0.61L44.63-0.61Q43.69-1.31 43.73-2.77L43.73-2.77L44.86-2.77Q44.91-0.80 47.20-0.75L47.20-0.75Q49.45-0.80 49.50-2.20L49.50-2.20Q49.69-3.38 47.63-3.75L47.63-3.75L45.84-4.13Q44.02-4.64 44.02-6.19L44.02-6.19Q44.16-8.72 47.02-8.81L47.02-8.81Q50.25-8.81 50.34-6.09ZM53.20-5.06L57.70-5.06L57.70-8.58L58.88-8.58L58.88 0L57.70 0L57.70-3.98L53.20-3.98L53.20 0L52.03 0L52.03-8.58L53.20-8.58L53.20-5.06ZM66.33 0L65.48-2.48L62.02-2.48L61.13 0L59.95 0L63.19-8.58L64.50-8.58L67.59 0L66.33 0ZM63.75-7.31L62.39-3.52L65.06-3.52L63.80-7.31L63.75-7.31ZM78.89-8.58L75.66-3.47L75.66 0L74.48 0L74.48-3.47L71.25-8.58L72.61-8.58L75.05-4.45L77.53-8.58L78.89-8.58ZM85.59-3.19L85.59-8.58L86.77-8.58L86.77-3.05Q86.63 0.05 83.25 0.14L83.25 0.14Q80.11 0.05 79.97-2.86L79.97-2.86L79.97-8.58L81.14-8.58L81.14-3.19Q81.19-0.84 83.30-0.80L83.30-0.80Q85.59-0.84 85.59-3.19L85.59-3.19ZM94.22 0L93.38-2.48L89.91-2.48L89.02 0L87.84 0L91.08-8.58L92.39-8.58L95.48 0L94.22 0ZM91.64-7.31L90.28-3.52L92.95-3.52L91.69-7.31L91.64-7.31ZM97.92-8.58L102.23-1.64L102.23-8.58L103.36-8.58L103.36 0L102.05 0L97.69-6.94L97.64-6.94L97.64 0L96.52 0L96.52-8.58L97.92-8.58ZM106.31-5.06L110.81-5.06L110.81-8.58L111.98-8.58L111.98 0L110.81 0L110.81-3.98L106.31-3.98L106.31 0L105.14 0L105.14-8.58L106.31-8.58L106.31-5.06ZM120.56-4.27L120.56-4.27Q120.38-7.64 117.56-7.83L117.56-7.83Q114.70-7.69 114.56-4.27L114.56-4.27Q114.70-0.94 117.56-0.80L117.56-0.80Q120.38-0.98 120.56-4.27ZM121.73-4.27L121.73-4.27Q121.45 0 117.56 0.14L117.56 0.14Q113.63 0 113.34-4.27L113.34-4.27Q113.58-8.72 117.56-8.81L117.56-8.81Q121.45-8.67 121.73-4.27ZM128.77-3.19L128.77-8.58L129.94-8.58L129.94-3.05Q129.80 0.05 126.42 0.14L126.42 0.14Q123.28 0.05 123.14-2.86L123.14-2.86L123.14-8.58L124.31-8.58L124.31-3.19Q124.36-0.84 126.47-0.80L126.47-0.80Q128.77-0.84 128.77-3.19L128.77-3.19Z" transform="translate(-0.515625, 8.8125)"></path></g></g></g></g></g><defs v-gra="od"></defs></svg>